<svg xmlns="http://www.w3.org/2000/svg" width="1024" height="1024" viewBox="0 0 1024 1024"><defs><linearGradient id="brand" x1="0" y1="0" x2="0.65" y2="1"><stop stop-color="#FF9957"/><stop offset="1" stop-color="#FF6048"/></linearGradient></defs><rect width="1024" height="1024" fill="#F7F4EE"/><path d="M512 170C356 170 244 281 244 429C244 557 352 698 478 822Q512 855 546 822C672 698 780 557 780 429C780 281 668 170 512 170Z" fill="#263A32"/><path d="M512 256C527 403 534 413 668 429C534 445 527 455 512 602C497 455 490 445 356 429C490 413 497 403 512 256Z" fill="url(#brand)"/></svg>